<svg width="24" height="24" viewBox="0 0 24 24" fill="none" xmlns="http://www.w3.org/2000/svg">
<path d="M16.6177 13.4312C17.0419 13.0776 17.0993 12.447 16.7457 12.0228C16.3921 11.5985 15.7616 11.5412 15.3373 11.8947L16.6177 13.4312ZM12 15.9775L11.3598 16.7458C11.7306 17.0548 12.2693 17.0548 12.6402 16.7458L12 15.9775ZM8.66265 11.8947C8.23838 11.5412 7.60781 11.5985 7.25425 12.0228C6.90068 12.447 6.95801 13.0776 7.38228 13.4312L8.66265 11.8947ZM13 8.02253C13 7.47024 12.5523 7.02253 12 7.02253C11.4477 7.02253 11 7.47024 11 8.02253L13 8.02253ZM15.3373 11.8947L11.3598 15.2093L12.6402 16.7458L16.6177 13.4312L15.3373 11.8947ZM12.6402 15.2093L8.66265 11.8947L7.38228 13.4312L11.3598 16.7458L12.6402 15.2093ZM13 15.9775V8.02253L11 8.02253L11 15.9775H13ZM17.6569 17.6569C14.5327 20.781 9.46734 20.781 6.34315 17.6569L4.92893 19.0711C8.83418 22.9763 15.1658 22.9763 19.0711 19.0711L17.6569 17.6569ZM6.34315 17.6569C3.21895 14.5327 3.21895 9.46734 6.34315 6.34315L4.92893 4.92893C1.02369 8.83418 1.02369 15.1658 4.92893 19.0711L6.34315 17.6569ZM6.34315 6.34315C9.46734 3.21895 14.5327 3.21895 17.6569 6.34315L19.0711 4.92893C15.1658 1.02369 8.83418 1.02369 4.92893 4.92893L6.34315 6.34315ZM17.6569 6.34315C20.781 9.46734 20.781 14.5327 17.6569 17.6569L19.0711 19.0711C22.9763 15.1658 22.9763 8.83418 19.0711 4.92893L17.6569 6.34315Z" fill="black"/>
</svg>
