<svg width="24" height="24" viewBox="0 0 24 24" fill="none" xmlns="http://www.w3.org/2000/svg">
    <path
        d="M9.58587 16.8179C9.29209 16.1781 8.0888 15.244 7.78938 15.1092C7.10444 14.7264 6.30815 14.573 5.52401 14.6729C4.73987 14.7729 4.0117 15.1205 3.45241 15.6618C2.89313 16.2032 2.53399 16.9081 2.43069 17.6672C2.32739 18.4264 2.4857 19.1973 2.88107 19.8604C3.27645 20.5235 3.88679 21.0418 4.61745 21.3349C5.34811 21.628 6.15825 21.6796 6.92224 21.4815C7.68623 21.2835 8.36137 20.8469 8.84297 20.2396C9.32456 19.6322 9.5857 18.888 9.58588 18.1223V5.91005C9.58588 5.44257 9.90976 5.03746 10.3658 4.93457L21.5999 2.3999L21.5998 15.6399M21.5998 15.6399L21.5999 16.9445C21.5997 17.7102 21.3386 18.4544 20.857 19.0618C20.3754 19.6691 19.7003 20.1057 18.9363 20.3037C18.1723 20.5018 17.3621 20.4502 16.6315 20.1571C15.9008 19.864 15.2905 19.3457 14.8951 18.6826C14.4997 18.0194 14.3414 17.2485 14.4447 16.4894C14.548 15.7303 14.9072 15.0254 15.4664 14.484C16.0257 13.9426 16.7539 13.595 17.538 13.4951C18.3222 13.3952 19.1185 13.5486 19.8034 13.9314C20.1028 14.0662 21.3058 15.0001 21.5998 15.6399Z"
        stroke="black" stroke-width="2" stroke-linecap="round" stroke-linejoin="round" />
</svg>
